<?xml version="1.0" standalone="no"?>
<!DOCTYPE svg PUBLIC "-//W3C//DTD SVG 20010904//EN"
 "http://www.w3.org/TR/2001/REC-SVG-20010904/DTD/svg10.dtd">
<svg version="1.0" xmlns="http://www.w3.org/2000/svg"
 width="512.000000pt" height="512.000000pt" viewBox="0 0 512.000000 512.000000"
 preserveAspectRatio="xMidYMid meet">

<g transform="translate(0.000000,512.000000) scale(0.100000,-0.100000)"
fill="#000000" stroke="none">
<path d="M2330 5110 c-890 -86 -1671 -622 -2060 -1415 -161 -327 -236 -606
-262 -973 -24 -335 30 -719 147 -1038 54 -147 184 -404 271 -534 611 -915
1716 -1339 2775 -1066 612 157 1141 537 1501 1078 80 120 212 381 263 522 117
319 171 703 147 1038 -13 191 -32 304 -77 484 -45 177 -91 298 -185 489 -134
272 -293 489 -517 705 -208 202 -386 327 -648 455 -250 123 -480 195 -750 236
-151 23 -462 32 -605 19z m-545 -1679 c145 -30 296 -104 405 -200 l35 -31 -50
21 c-138 58 -305 74 -450 44 -87 -18 -234 -90 -300 -146 -113 -97 -185 -203
-232 -344 -24 -71 -27 -95 -27 -215 0 -120 3 -144 27 -215 67 -199 189 -340
372 -431 186 -92 398 -99 595 -20 l65 26 -40 -35 c-254 -222 -638 -277 -950
-136 -249 113 -434 341 -502 617 -22 93 -22 295 0 388 77 311 295 552 589 650
147 49 310 59 463 27z m780 -551 c55 -77 100 -140 101 -140 0 0 76 24 167 54
92 29 167 52 167 49 0 -2 -43 -63 -96 -135 -53 -72 -98 -136 -100 -142 -2 -7
41 -74 96 -149 55 -76 100 -139 100 -141 0 -2 -330 100 -335 104 0 0 -45 -63
-100 -140 -55 -76 -103 -139 -107 -140 -4 0 -9 79 -10 176 l-3 176 -157 51
c-87 28 -158 54 -158 57 0 3 71 29 158 57 l157 51 3 176 c1 97 6 176 10 176 4
-1 52 -64 107 -140z"/>
</g>
</svg>
